<svg width="25" height="24" viewBox="0 0 25 24" fill="none" xmlns="http://www.w3.org/2000/svg">
<rect width="24" height="24" transform="translate(0.578369)" fill="white"/>
<path d="M16.3284 10.5V6C16.3284 3.92893 14.6494 2.25 12.5784 2.25C10.5073 2.25 8.82837 3.92893 8.82837 6V10.5M20.1844 8.50723L21.4475 20.5072C21.5175 21.1715 20.9966 21.75 20.3287 21.75H4.828C4.16009 21.75 3.63926 21.1715 3.70918 20.5072L4.97234 8.50723C5.03261 7.93466 5.51543 7.5 6.09116 7.5H19.0656C19.6413 7.5 20.1241 7.93466 20.1844 8.50723ZM9.20337 10.5C9.20337 10.7071 9.03547 10.875 8.82837 10.875C8.62126 10.875 8.45337 10.7071 8.45337 10.5C8.45337 10.2929 8.62126 10.125 8.82837 10.125C9.03547 10.125 9.20337 10.2929 9.20337 10.5ZM16.7034 10.5C16.7034 10.7071 16.5355 10.875 16.3284 10.875C16.1213 10.875 15.9534 10.7071 15.9534 10.5C15.9534 10.2929 16.1213 10.125 16.3284 10.125C16.5355 10.125 16.7034 10.2929 16.7034 10.5Z" stroke="#6366F1" stroke-width="1.5" stroke-linecap="round" stroke-linejoin="round"/>
</svg>
